<?xml version="1.0" standalone="no"?><!DOCTYPE svg PUBLIC "-//W3C//DTD SVG 1.1//EN" "http://www.w3.org/Graphics/SVG/1.1/DTD/svg11.dtd"><svg t="1758460616667" class="icon" viewBox="0 0 1024 1024" version="1.1" xmlns="http://www.w3.org/2000/svg" p-id="9553" xmlns:xlink="http://www.w3.org/1999/xlink" width="200" height="200"><path d="M469.333333 170.666667a85.333333 85.333333 0 0 1 85.333334-85.333334h170.666666v85.333334h-170.666666v85.333333h384v597.333333H85.333333V256h384V170.666667zM170.666667 341.333333v426.666667h682.666666V341.333333H170.666667z m213.333333 85.333334v85.333333h85.333333v85.333333H384v85.333334H298.666667v-85.333334H213.333333v-85.333333h85.333334v-85.333333h85.333333z m256 0h85.461333v85.333333h85.333334v85.504h-85.333334v85.333333H640v-85.333333h-85.333333V512h85.333333v-85.333333z m0.170667 85.504V597.333333H725.333333v-85.162666h-85.162666z" fill="#13227a" p-id="9554"></path></svg>